<mxfile host="app.diagrams.net" modified="2022-08-30T09:20:20.234Z" agent="5.0 (Macintosh; Intel Mac OS X 10_15_7) AppleWebKit/537.36 (KHTML, like Gecko) Chrome/104.0.0.0 Safari/537.36" etag="2b_Iq7wABntD4RkC7bda" version="20.2.7" type="github" pages="3">
  <diagram id="oE2_1I7N5nSIbNqHSl13" name="UML">
    <mxGraphModel dx="1186" dy="653" grid="1" gridSize="10" guides="1" tooltips="1" connect="1" arrows="1" fold="1" page="1" pageScale="1" pageWidth="827" pageHeight="1169" math="0" shadow="0">
      <root>
        <mxCell id="0" />
        <mxCell id="1" parent="0" />
        <mxCell id="H5zos54c4SpsF4I4KSYb-1" value="HashMap" style="swimlane;fontStyle=1;align=center;verticalAlign=top;childLayout=stackLayout;horizontal=1;startSize=26;horizontalStack=0;resizeParent=1;resizeParentMax=0;resizeLast=0;collapsible=1;marginBottom=0;" parent="1" vertex="1">
          <mxGeometry x="310" y="500" width="440" height="338" as="geometry" />
        </mxCell>
        <mxCell id="H5zos54c4SpsF4I4KSYb-2" value="+ float: loadFactor&#xa;+ int: threshold   阀值&#xa;+ int: size           当前元素个数&#xa;+ int: modCount&#xa;+ Node&lt;K,V&gt;[]: table&#xa;+ Set&lt;Map.Entry&lt;K,V&gt;&gt; entrySet" style="text;strokeColor=none;fillColor=none;align=left;verticalAlign=top;spacingLeft=4;spacingRight=4;overflow=hidden;rotatable=0;points=[[0,0.5],[1,0.5]];portConstraint=eastwest;" parent="H5zos54c4SpsF4I4KSYb-1" vertex="1">
          <mxGeometry y="26" width="440" height="104" as="geometry" />
        </mxCell>
        <mxCell id="H5zos54c4SpsF4I4KSYb-3" value="" style="line;strokeWidth=1;fillColor=none;align=left;verticalAlign=middle;spacingTop=-1;spacingLeft=3;spacingRight=3;rotatable=0;labelPosition=right;points=[];portConstraint=eastwest;" parent="H5zos54c4SpsF4I4KSYb-1" vertex="1">
          <mxGeometry y="130" width="440" height="8" as="geometry" />
        </mxCell>
        <mxCell id="H5zos54c4SpsF4I4KSYb-4" value="+ put(K,V): V&#xa;+ get(Object): V &#xa;+ resize(): void" style="text;strokeColor=none;fillColor=none;align=left;verticalAlign=top;spacingLeft=4;spacingRight=4;overflow=hidden;rotatable=0;points=[[0,0.5],[1,0.5]];portConstraint=eastwest;" parent="H5zos54c4SpsF4I4KSYb-1" vertex="1">
          <mxGeometry y="138" width="440" height="200" as="geometry" />
        </mxCell>
        <mxCell id="fHcyIPj02tVEFjKDAxiH-1" value="«interface»&lt;br&gt;&lt;b&gt;Map&lt;/b&gt;" style="html=1;" parent="1" vertex="1">
          <mxGeometry x="460" y="70" width="110" height="50" as="geometry" />
        </mxCell>
        <mxCell id="fHcyIPj02tVEFjKDAxiH-2" value="AbstractMap" style="swimlane;fontStyle=1;align=center;verticalAlign=top;childLayout=stackLayout;horizontal=1;startSize=26;horizontalStack=0;resizeParent=1;resizeParentMax=0;resizeLast=0;collapsible=1;marginBottom=0;" parent="1" vertex="1">
          <mxGeometry x="700" y="220" width="160" height="86" as="geometry" />
        </mxCell>
        <mxCell id="fHcyIPj02tVEFjKDAxiH-3" value="+ field: type" style="text;strokeColor=none;fillColor=none;align=left;verticalAlign=top;spacingLeft=4;spacingRight=4;overflow=hidden;rotatable=0;points=[[0,0.5],[1,0.5]];portConstraint=eastwest;" parent="fHcyIPj02tVEFjKDAxiH-2" vertex="1">
          <mxGeometry y="26" width="160" height="26" as="geometry" />
        </mxCell>
        <mxCell id="fHcyIPj02tVEFjKDAxiH-4" value="" style="line;strokeWidth=1;fillColor=none;align=left;verticalAlign=middle;spacingTop=-1;spacingLeft=3;spacingRight=3;rotatable=0;labelPosition=right;points=[];portConstraint=eastwest;" parent="fHcyIPj02tVEFjKDAxiH-2" vertex="1">
          <mxGeometry y="52" width="160" height="8" as="geometry" />
        </mxCell>
        <mxCell id="fHcyIPj02tVEFjKDAxiH-5" value="+ method(type): type" style="text;strokeColor=none;fillColor=none;align=left;verticalAlign=top;spacingLeft=4;spacingRight=4;overflow=hidden;rotatable=0;points=[[0,0.5],[1,0.5]];portConstraint=eastwest;" parent="fHcyIPj02tVEFjKDAxiH-2" vertex="1">
          <mxGeometry y="60" width="160" height="26" as="geometry" />
        </mxCell>
        <mxCell id="fHcyIPj02tVEFjKDAxiH-6" value="" style="endArrow=block;dashed=1;endFill=0;endSize=12;html=1;rounded=0;entryX=0.436;entryY=1.04;entryDx=0;entryDy=0;entryPerimeter=0;" parent="1" source="H5zos54c4SpsF4I4KSYb-1" target="fHcyIPj02tVEFjKDAxiH-1" edge="1">
          <mxGeometry width="160" relative="1" as="geometry">
            <mxPoint x="330" y="570" as="sourcePoint" />
            <mxPoint x="490" y="570" as="targetPoint" />
          </mxGeometry>
        </mxCell>
        <mxCell id="fHcyIPj02tVEFjKDAxiH-7" value="" style="endArrow=block;dashed=1;endFill=0;endSize=12;html=1;rounded=0;entryX=0.5;entryY=1;entryDx=0;entryDy=0;exitX=0.5;exitY=0;exitDx=0;exitDy=0;" parent="1" source="fHcyIPj02tVEFjKDAxiH-2" target="fHcyIPj02tVEFjKDAxiH-1" edge="1">
          <mxGeometry width="160" relative="1" as="geometry">
            <mxPoint x="330" y="570" as="sourcePoint" />
            <mxPoint x="490" y="570" as="targetPoint" />
          </mxGeometry>
        </mxCell>
        <mxCell id="fHcyIPj02tVEFjKDAxiH-8" value="Extends" style="endArrow=block;endSize=16;endFill=0;html=1;rounded=0;" parent="1" source="H5zos54c4SpsF4I4KSYb-1" target="fHcyIPj02tVEFjKDAxiH-5" edge="1">
          <mxGeometry width="160" relative="1" as="geometry">
            <mxPoint x="330" y="570" as="sourcePoint" />
            <mxPoint x="490" y="570" as="targetPoint" />
          </mxGeometry>
        </mxCell>
        <mxCell id="fHcyIPj02tVEFjKDAxiH-9" value="" style="endArrow=open;startArrow=circlePlus;endFill=0;startFill=0;endSize=8;html=1;rounded=0;entryX=0.006;entryY=0.291;entryDx=0;entryDy=0;entryPerimeter=0;exitX=1;exitY=0.044;exitDx=0;exitDy=0;exitPerimeter=0;" parent="1" source="H5zos54c4SpsF4I4KSYb-1" target="fHcyIPj02tVEFjKDAxiH-12" edge="1">
          <mxGeometry width="160" relative="1" as="geometry">
            <mxPoint x="330" y="570" as="sourcePoint" />
            <mxPoint x="70" y="590" as="targetPoint" />
          </mxGeometry>
        </mxCell>
        <mxCell id="fHcyIPj02tVEFjKDAxiH-11" value="Node&lt;K,V&gt;" style="swimlane;fontStyle=1;align=center;verticalAlign=top;childLayout=stackLayout;horizontal=1;startSize=26;horizontalStack=0;resizeParent=1;resizeParentMax=0;resizeLast=0;collapsible=1;marginBottom=0;" parent="1" vertex="1">
          <mxGeometry x="930" y="650" width="160" height="168" as="geometry" />
        </mxCell>
        <mxCell id="fHcyIPj02tVEFjKDAxiH-12" value="+ hash: int&#xa;+ key : K&#xa;+ value : V&#xa;+ Node&lt;K,V&gt;: next" style="text;strokeColor=none;fillColor=none;align=left;verticalAlign=top;spacingLeft=4;spacingRight=4;overflow=hidden;rotatable=0;points=[[0,0.5],[1,0.5]];portConstraint=eastwest;" parent="fHcyIPj02tVEFjKDAxiH-11" vertex="1">
          <mxGeometry y="26" width="160" height="134" as="geometry" />
        </mxCell>
        <mxCell id="fHcyIPj02tVEFjKDAxiH-13" value="" style="line;strokeWidth=1;fillColor=none;align=left;verticalAlign=middle;spacingTop=-1;spacingLeft=3;spacingRight=3;rotatable=0;labelPosition=right;points=[];portConstraint=eastwest;" parent="fHcyIPj02tVEFjKDAxiH-11" vertex="1">
          <mxGeometry y="160" width="160" height="8" as="geometry" />
        </mxCell>
        <mxCell id="fHcyIPj02tVEFjKDAxiH-15" value="" style="endArrow=diamondThin;endFill=0;endSize=24;html=1;rounded=0;exitX=1;exitY=0.5;exitDx=0;exitDy=0;entryX=0.5;entryY=0;entryDx=0;entryDy=0;" parent="fHcyIPj02tVEFjKDAxiH-11" source="fHcyIPj02tVEFjKDAxiH-12" target="fHcyIPj02tVEFjKDAxiH-11" edge="1">
          <mxGeometry width="160" relative="1" as="geometry">
            <mxPoint x="450" y="-10" as="sourcePoint" />
            <mxPoint x="610" y="-10" as="targetPoint" />
            <Array as="points">
              <mxPoint x="250" y="93" />
              <mxPoint x="250" y="-90" />
              <mxPoint x="80" y="-90" />
            </Array>
          </mxGeometry>
        </mxCell>
      </root>
    </mxGraphModel>
  </diagram>
  <diagram id="g6DwlqotJYV2SGOiSlwl" name="putVal">
    <mxGraphModel dx="2013" dy="653" grid="1" gridSize="10" guides="1" tooltips="1" connect="1" arrows="1" fold="1" page="1" pageScale="1" pageWidth="827" pageHeight="1169" math="0" shadow="0">
      <root>
        <mxCell id="0" />
        <mxCell id="1" parent="0" />
        <mxCell id="I7VolOuyJf7Wvv-ecBtf-3" style="edgeStyle=orthogonalEdgeStyle;rounded=0;orthogonalLoop=1;jettySize=auto;html=1;entryX=0.5;entryY=0;entryDx=0;entryDy=0;" parent="1" source="L0MCmPdgNGlEuRcipLMO-1" target="I7VolOuyJf7Wvv-ecBtf-1" edge="1">
          <mxGeometry relative="1" as="geometry" />
        </mxCell>
        <mxCell id="L0MCmPdgNGlEuRcipLMO-1" value="start" style="whiteSpace=wrap;html=1;" parent="1" vertex="1">
          <mxGeometry x="350" y="150" width="120" height="60" as="geometry" />
        </mxCell>
        <mxCell id="I7VolOuyJf7Wvv-ecBtf-4" style="edgeStyle=orthogonalEdgeStyle;rounded=0;orthogonalLoop=1;jettySize=auto;html=1;entryX=0.5;entryY=0;entryDx=0;entryDy=0;" parent="1" source="I7VolOuyJf7Wvv-ecBtf-1" target="I7VolOuyJf7Wvv-ecBtf-2" edge="1">
          <mxGeometry relative="1" as="geometry" />
        </mxCell>
        <mxCell id="I7VolOuyJf7Wvv-ecBtf-5" value="否" style="edgeLabel;html=1;align=center;verticalAlign=middle;resizable=0;points=[];" parent="I7VolOuyJf7Wvv-ecBtf-4" vertex="1" connectable="0">
          <mxGeometry x="-0.0323" y="3" relative="1" as="geometry">
            <mxPoint as="offset" />
          </mxGeometry>
        </mxCell>
        <mxCell id="I7VolOuyJf7Wvv-ecBtf-7" style="edgeStyle=orthogonalEdgeStyle;rounded=0;orthogonalLoop=1;jettySize=auto;html=1;entryX=0.5;entryY=0;entryDx=0;entryDy=0;" parent="1" source="I7VolOuyJf7Wvv-ecBtf-1" target="I7VolOuyJf7Wvv-ecBtf-6" edge="1">
          <mxGeometry relative="1" as="geometry" />
        </mxCell>
        <mxCell id="I7VolOuyJf7Wvv-ecBtf-22" value="是" style="edgeLabel;html=1;align=center;verticalAlign=middle;resizable=0;points=[];" parent="I7VolOuyJf7Wvv-ecBtf-7" vertex="1" connectable="0">
          <mxGeometry x="-0.375" relative="1" as="geometry">
            <mxPoint as="offset" />
          </mxGeometry>
        </mxCell>
        <mxCell id="I7VolOuyJf7Wvv-ecBtf-1" value="是否已初始化" style="rhombus;whiteSpace=wrap;html=1;" parent="1" vertex="1">
          <mxGeometry x="350" y="290" width="120" height="100" as="geometry" />
        </mxCell>
        <mxCell id="I7VolOuyJf7Wvv-ecBtf-8" style="edgeStyle=orthogonalEdgeStyle;rounded=0;orthogonalLoop=1;jettySize=auto;html=1;entryX=0;entryY=0.5;entryDx=0;entryDy=0;" parent="1" source="I7VolOuyJf7Wvv-ecBtf-2" target="I7VolOuyJf7Wvv-ecBtf-6" edge="1">
          <mxGeometry relative="1" as="geometry" />
        </mxCell>
        <mxCell id="I7VolOuyJf7Wvv-ecBtf-2" value="resize()&lt;br&gt;初始化" style="whiteSpace=wrap;html=1;" parent="1" vertex="1">
          <mxGeometry x="100" y="450" width="120" height="60" as="geometry" />
        </mxCell>
        <mxCell id="I7VolOuyJf7Wvv-ecBtf-13" style="edgeStyle=orthogonalEdgeStyle;rounded=0;orthogonalLoop=1;jettySize=auto;html=1;" parent="1" source="I7VolOuyJf7Wvv-ecBtf-6" target="I7VolOuyJf7Wvv-ecBtf-9" edge="1">
          <mxGeometry relative="1" as="geometry" />
        </mxCell>
        <mxCell id="I7VolOuyJf7Wvv-ecBtf-21" value="是" style="edgeLabel;html=1;align=center;verticalAlign=middle;resizable=0;points=[];" parent="I7VolOuyJf7Wvv-ecBtf-13" vertex="1" connectable="0">
          <mxGeometry x="-0.1455" y="4" relative="1" as="geometry">
            <mxPoint y="1" as="offset" />
          </mxGeometry>
        </mxCell>
        <mxCell id="I7VolOuyJf7Wvv-ecBtf-26" style="edgeStyle=orthogonalEdgeStyle;rounded=0;orthogonalLoop=1;jettySize=auto;html=1;entryX=0.5;entryY=0;entryDx=0;entryDy=0;fontFamily=Helvetica;fontSize=12;fontColor=default;" parent="1" source="I7VolOuyJf7Wvv-ecBtf-6" target="I7VolOuyJf7Wvv-ecBtf-23" edge="1">
          <mxGeometry relative="1" as="geometry" />
        </mxCell>
        <mxCell id="I7VolOuyJf7Wvv-ecBtf-27" value="否" style="edgeLabel;html=1;align=center;verticalAlign=middle;resizable=0;points=[];fontSize=12;fontFamily=Helvetica;fontColor=default;" parent="I7VolOuyJf7Wvv-ecBtf-26" vertex="1" connectable="0">
          <mxGeometry x="0.0692" y="3" relative="1" as="geometry">
            <mxPoint y="1" as="offset" />
          </mxGeometry>
        </mxCell>
        <mxCell id="I7VolOuyJf7Wvv-ecBtf-6" value="根据hash值找到该槽位的头节点p是否为空值" style="rhombus;whiteSpace=wrap;html=1;" parent="1" vertex="1">
          <mxGeometry x="350" y="430" width="120" height="100" as="geometry" />
        </mxCell>
        <mxCell id="I7VolOuyJf7Wvv-ecBtf-14" style="edgeStyle=orthogonalEdgeStyle;rounded=0;orthogonalLoop=1;jettySize=auto;html=1;" parent="1" source="I7VolOuyJf7Wvv-ecBtf-9" target="I7VolOuyJf7Wvv-ecBtf-10" edge="1">
          <mxGeometry relative="1" as="geometry" />
        </mxCell>
        <mxCell id="I7VolOuyJf7Wvv-ecBtf-9" value="构建节点，把该槽位头节点设置为该节点" style="whiteSpace=wrap;html=1;" parent="1" vertex="1">
          <mxGeometry x="660" y="450" width="120" height="60" as="geometry" />
        </mxCell>
        <mxCell id="I7VolOuyJf7Wvv-ecBtf-15" style="edgeStyle=orthogonalEdgeStyle;rounded=0;orthogonalLoop=1;jettySize=auto;html=1;" parent="1" source="I7VolOuyJf7Wvv-ecBtf-10" target="I7VolOuyJf7Wvv-ecBtf-11" edge="1">
          <mxGeometry relative="1" as="geometry" />
        </mxCell>
        <mxCell id="I7VolOuyJf7Wvv-ecBtf-10" value="++&lt;font color=&quot;#ff00ff&quot;&gt;modCount&lt;/font&gt;&lt;br&gt;++&lt;font color=&quot;#ff00ff&quot;&gt;size&lt;/font&gt;" style="whiteSpace=wrap;html=1;" parent="1" vertex="1">
          <mxGeometry x="660" y="650" width="120" height="60" as="geometry" />
        </mxCell>
        <mxCell id="I7VolOuyJf7Wvv-ecBtf-16" style="edgeStyle=orthogonalEdgeStyle;rounded=0;orthogonalLoop=1;jettySize=auto;html=1;entryX=0.5;entryY=0;entryDx=0;entryDy=0;" parent="1" source="I7VolOuyJf7Wvv-ecBtf-11" target="I7VolOuyJf7Wvv-ecBtf-12" edge="1">
          <mxGeometry relative="1" as="geometry" />
        </mxCell>
        <mxCell id="I7VolOuyJf7Wvv-ecBtf-11" value="当前元素总数大于阀值&lt;br&gt;&lt;font color=&quot;#ff00ff&quot;&gt;size&amp;nbsp;&lt;/font&gt;&amp;gt;&amp;nbsp;&lt;font color=&quot;#ff00ff&quot;&gt;threshold&lt;/font&gt;" style="rhombus;whiteSpace=wrap;html=1;" parent="1" vertex="1">
          <mxGeometry x="660" y="800" width="120" height="100" as="geometry" />
        </mxCell>
        <mxCell id="I7VolOuyJf7Wvv-ecBtf-18" style="edgeStyle=orthogonalEdgeStyle;rounded=0;orthogonalLoop=1;jettySize=auto;html=1;entryX=0.5;entryY=0;entryDx=0;entryDy=0;" parent="1" source="I7VolOuyJf7Wvv-ecBtf-12" target="I7VolOuyJf7Wvv-ecBtf-17" edge="1">
          <mxGeometry relative="1" as="geometry" />
        </mxCell>
        <mxCell id="I7VolOuyJf7Wvv-ecBtf-12" value="resize()&lt;br&gt;扩容" style="whiteSpace=wrap;html=1;" parent="1" vertex="1">
          <mxGeometry x="660" y="1020" width="120" height="60" as="geometry" />
        </mxCell>
        <mxCell id="I7VolOuyJf7Wvv-ecBtf-20" style="edgeStyle=orthogonalEdgeStyle;rounded=0;orthogonalLoop=1;jettySize=auto;html=1;entryX=0.5;entryY=0;entryDx=0;entryDy=0;" parent="1" source="I7VolOuyJf7Wvv-ecBtf-17" target="I7VolOuyJf7Wvv-ecBtf-19" edge="1">
          <mxGeometry relative="1" as="geometry" />
        </mxCell>
        <mxCell id="I7VolOuyJf7Wvv-ecBtf-17" value="afterNodeInsertion&lt;br&gt;插入节点后处理回调，在HashMap中没有覆盖该方法。" style="whiteSpace=wrap;html=1;" parent="1" vertex="1">
          <mxGeometry x="660" y="1210" width="120" height="60" as="geometry" />
        </mxCell>
        <mxCell id="I7VolOuyJf7Wvv-ecBtf-76" style="edgeStyle=orthogonalEdgeStyle;rounded=0;orthogonalLoop=1;jettySize=auto;html=1;entryX=1;entryY=0.5;entryDx=0;entryDy=0;fontFamily=Helvetica;fontSize=12;fontColor=default;" parent="1" source="I7VolOuyJf7Wvv-ecBtf-19" target="I7VolOuyJf7Wvv-ecBtf-74" edge="1">
          <mxGeometry relative="1" as="geometry">
            <Array as="points">
              <mxPoint x="720" y="2080" />
            </Array>
          </mxGeometry>
        </mxCell>
        <mxCell id="I7VolOuyJf7Wvv-ecBtf-19" value="返回null" style="whiteSpace=wrap;html=1;" parent="1" vertex="1">
          <mxGeometry x="660" y="1430" width="120" height="60" as="geometry" />
        </mxCell>
        <mxCell id="I7VolOuyJf7Wvv-ecBtf-28" style="edgeStyle=orthogonalEdgeStyle;rounded=0;orthogonalLoop=1;jettySize=auto;html=1;fontFamily=Helvetica;fontSize=12;fontColor=default;entryX=0.5;entryY=0;entryDx=0;entryDy=0;" parent="1" source="I7VolOuyJf7Wvv-ecBtf-23" target="I7VolOuyJf7Wvv-ecBtf-53" edge="1">
          <mxGeometry relative="1" as="geometry">
            <mxPoint x="20" y="710" as="targetPoint" />
          </mxGeometry>
        </mxCell>
        <mxCell id="I7VolOuyJf7Wvv-ecBtf-30" value="是" style="edgeLabel;html=1;align=center;verticalAlign=middle;resizable=0;points=[];fontSize=12;fontFamily=Helvetica;fontColor=default;" parent="I7VolOuyJf7Wvv-ecBtf-28" vertex="1" connectable="0">
          <mxGeometry x="-0.2714" y="-2" relative="1" as="geometry">
            <mxPoint as="offset" />
          </mxGeometry>
        </mxCell>
        <mxCell id="I7VolOuyJf7Wvv-ecBtf-31" style="edgeStyle=orthogonalEdgeStyle;rounded=0;orthogonalLoop=1;jettySize=auto;html=1;entryX=0.5;entryY=0;entryDx=0;entryDy=0;fontFamily=Helvetica;fontSize=12;fontColor=default;" parent="1" source="I7VolOuyJf7Wvv-ecBtf-23" target="I7VolOuyJf7Wvv-ecBtf-32" edge="1">
          <mxGeometry relative="1" as="geometry">
            <mxPoint x="361.5" y="960" as="targetPoint" />
          </mxGeometry>
        </mxCell>
        <mxCell id="I7VolOuyJf7Wvv-ecBtf-34" value="否" style="edgeLabel;html=1;align=center;verticalAlign=middle;resizable=0;points=[];fontSize=12;fontFamily=Helvetica;fontColor=default;" parent="I7VolOuyJf7Wvv-ecBtf-31" vertex="1" connectable="0">
          <mxGeometry x="-0.17" y="1" relative="1" as="geometry">
            <mxPoint as="offset" />
          </mxGeometry>
        </mxCell>
        <mxCell id="I7VolOuyJf7Wvv-ecBtf-23" value="p节点的hash和equals判断是否和插入值的key都相等" style="rhombus;whiteSpace=wrap;html=1;" parent="1" vertex="1">
          <mxGeometry x="350" y="660" width="120" height="100" as="geometry" />
        </mxCell>
        <mxCell id="I7VolOuyJf7Wvv-ecBtf-44" value="否" style="edgeStyle=orthogonalEdgeStyle;rounded=0;orthogonalLoop=1;jettySize=auto;html=1;entryX=0.5;entryY=0;entryDx=0;entryDy=0;fontFamily=Helvetica;fontSize=12;fontColor=default;" parent="1" source="I7VolOuyJf7Wvv-ecBtf-32" target="I7VolOuyJf7Wvv-ecBtf-35" edge="1">
          <mxGeometry relative="1" as="geometry" />
        </mxCell>
        <mxCell id="I7VolOuyJf7Wvv-ecBtf-78" style="edgeStyle=orthogonalEdgeStyle;rounded=0;orthogonalLoop=1;jettySize=auto;html=1;entryX=1;entryY=0.5;entryDx=0;entryDy=0;fontFamily=Helvetica;fontSize=12;fontColor=default;" parent="1" source="I7VolOuyJf7Wvv-ecBtf-32" target="I7VolOuyJf7Wvv-ecBtf-77" edge="1">
          <mxGeometry relative="1" as="geometry" />
        </mxCell>
        <mxCell id="I7VolOuyJf7Wvv-ecBtf-79" value="是" style="edgeLabel;html=1;align=center;verticalAlign=middle;resizable=0;points=[];fontSize=12;fontFamily=Helvetica;fontColor=default;" parent="I7VolOuyJf7Wvv-ecBtf-78" vertex="1" connectable="0">
          <mxGeometry x="0.1571" relative="1" as="geometry">
            <mxPoint as="offset" />
          </mxGeometry>
        </mxCell>
        <mxCell id="I7VolOuyJf7Wvv-ecBtf-32" value="p节点类型是否为树节点类型" style="rhombus;whiteSpace=wrap;html=1;" parent="1" vertex="1">
          <mxGeometry x="350" y="860" width="120" height="100" as="geometry" />
        </mxCell>
        <mxCell id="I7VolOuyJf7Wvv-ecBtf-45" style="edgeStyle=orthogonalEdgeStyle;rounded=0;orthogonalLoop=1;jettySize=auto;html=1;entryX=0.5;entryY=0;entryDx=0;entryDy=0;fontFamily=Helvetica;fontSize=12;fontColor=default;" parent="1" source="I7VolOuyJf7Wvv-ecBtf-35" target="I7VolOuyJf7Wvv-ecBtf-37" edge="1">
          <mxGeometry relative="1" as="geometry" />
        </mxCell>
        <mxCell id="I7VolOuyJf7Wvv-ecBtf-35" value="取p的下一节点next，记录为e，并记录链长度binCount" style="whiteSpace=wrap;html=1;fontFamily=Helvetica;fontSize=12;fontColor=default;" parent="1" vertex="1">
          <mxGeometry x="350" y="1030" width="120" height="60" as="geometry" />
        </mxCell>
        <mxCell id="I7VolOuyJf7Wvv-ecBtf-41" style="edgeStyle=orthogonalEdgeStyle;rounded=0;orthogonalLoop=1;jettySize=auto;html=1;entryX=0.5;entryY=0;entryDx=0;entryDy=0;fontFamily=Helvetica;fontSize=12;fontColor=default;" parent="1" source="I7VolOuyJf7Wvv-ecBtf-37" target="I7VolOuyJf7Wvv-ecBtf-38" edge="1">
          <mxGeometry relative="1" as="geometry" />
        </mxCell>
        <mxCell id="I7VolOuyJf7Wvv-ecBtf-43" value="是" style="edgeLabel;html=1;align=center;verticalAlign=middle;resizable=0;points=[];fontSize=12;fontFamily=Helvetica;fontColor=default;" parent="I7VolOuyJf7Wvv-ecBtf-41" vertex="1" connectable="0">
          <mxGeometry x="-0.1364" y="-1" relative="1" as="geometry">
            <mxPoint y="1" as="offset" />
          </mxGeometry>
        </mxCell>
        <mxCell id="I7VolOuyJf7Wvv-ecBtf-50" style="edgeStyle=orthogonalEdgeStyle;rounded=0;orthogonalLoop=1;jettySize=auto;html=1;entryX=1;entryY=0.5;entryDx=0;entryDy=0;fontFamily=Helvetica;fontSize=12;fontColor=default;" parent="1" source="I7VolOuyJf7Wvv-ecBtf-37" target="I7VolOuyJf7Wvv-ecBtf-49" edge="1">
          <mxGeometry relative="1" as="geometry" />
        </mxCell>
        <mxCell id="I7VolOuyJf7Wvv-ecBtf-51" value="否" style="edgeLabel;html=1;align=center;verticalAlign=middle;resizable=0;points=[];fontSize=12;fontFamily=Helvetica;fontColor=default;" parent="I7VolOuyJf7Wvv-ecBtf-50" vertex="1" connectable="0">
          <mxGeometry x="-0.1818" y="1" relative="1" as="geometry">
            <mxPoint as="offset" />
          </mxGeometry>
        </mxCell>
        <mxCell id="I7VolOuyJf7Wvv-ecBtf-37" value="e为空节点" style="rhombus;whiteSpace=wrap;html=1;" parent="1" vertex="1">
          <mxGeometry x="350" y="1180" width="120" height="100" as="geometry" />
        </mxCell>
        <mxCell id="I7VolOuyJf7Wvv-ecBtf-42" style="edgeStyle=orthogonalEdgeStyle;rounded=0;orthogonalLoop=1;jettySize=auto;html=1;fontFamily=Helvetica;fontSize=12;fontColor=default;" parent="1" source="I7VolOuyJf7Wvv-ecBtf-38" target="I7VolOuyJf7Wvv-ecBtf-39" edge="1">
          <mxGeometry relative="1" as="geometry" />
        </mxCell>
        <mxCell id="I7VolOuyJf7Wvv-ecBtf-38" value="用插入的key，value构造一个节点，并把该节点赋值给p的next，即添加到链尾" style="whiteSpace=wrap;html=1;fontFamily=Helvetica;fontSize=12;fontColor=default;" parent="1" vertex="1">
          <mxGeometry x="350" y="1390" width="120" height="60" as="geometry" />
        </mxCell>
        <mxCell id="I7VolOuyJf7Wvv-ecBtf-47" style="edgeStyle=orthogonalEdgeStyle;rounded=0;orthogonalLoop=1;jettySize=auto;html=1;entryX=0.5;entryY=0;entryDx=0;entryDy=0;fontFamily=Helvetica;fontSize=12;fontColor=default;" parent="1" source="I7VolOuyJf7Wvv-ecBtf-39" target="I7VolOuyJf7Wvv-ecBtf-46" edge="1">
          <mxGeometry relative="1" as="geometry" />
        </mxCell>
        <mxCell id="I7VolOuyJf7Wvv-ecBtf-48" value="是" style="edgeLabel;html=1;align=center;verticalAlign=middle;resizable=0;points=[];fontSize=12;fontFamily=Helvetica;fontColor=default;" parent="I7VolOuyJf7Wvv-ecBtf-47" vertex="1" connectable="0">
          <mxGeometry x="0.0111" y="4" relative="1" as="geometry">
            <mxPoint y="1" as="offset" />
          </mxGeometry>
        </mxCell>
        <mxCell id="I7VolOuyJf7Wvv-ecBtf-71" style="edgeStyle=orthogonalEdgeStyle;rounded=0;orthogonalLoop=1;jettySize=auto;html=1;entryX=1;entryY=0.5;entryDx=0;entryDy=0;fontFamily=Helvetica;fontSize=12;fontColor=default;" parent="1" source="I7VolOuyJf7Wvv-ecBtf-39" target="I7VolOuyJf7Wvv-ecBtf-60" edge="1">
          <mxGeometry relative="1" as="geometry">
            <Array as="points">
              <mxPoint x="80" y="1570" />
              <mxPoint x="80" y="1410" />
            </Array>
          </mxGeometry>
        </mxCell>
        <mxCell id="I7VolOuyJf7Wvv-ecBtf-72" value="否" style="edgeLabel;html=1;align=center;verticalAlign=middle;resizable=0;points=[];fontSize=12;fontFamily=Helvetica;fontColor=default;" parent="I7VolOuyJf7Wvv-ecBtf-71" vertex="1" connectable="0">
          <mxGeometry x="-0.38" y="-2" relative="1" as="geometry">
            <mxPoint as="offset" />
          </mxGeometry>
        </mxCell>
        <mxCell id="I7VolOuyJf7Wvv-ecBtf-39" value="是否超出链长阀值&lt;br&gt;binCount&amp;gt;=&lt;font color=&quot;#ff00ff&quot;&gt;TREEIFY_SHOLD&lt;/font&gt; - 1" style="rhombus;whiteSpace=wrap;html=1;" parent="1" vertex="1">
          <mxGeometry x="350" y="1520" width="120" height="100" as="geometry" />
        </mxCell>
        <mxCell id="I7VolOuyJf7Wvv-ecBtf-73" style="edgeStyle=orthogonalEdgeStyle;rounded=0;orthogonalLoop=1;jettySize=auto;html=1;entryX=1;entryY=0.5;entryDx=0;entryDy=0;fontFamily=Helvetica;fontSize=12;fontColor=default;" parent="1" source="I7VolOuyJf7Wvv-ecBtf-46" target="I7VolOuyJf7Wvv-ecBtf-60" edge="1">
          <mxGeometry relative="1" as="geometry">
            <Array as="points">
              <mxPoint x="80" y="1740" />
              <mxPoint x="80" y="1410" />
            </Array>
          </mxGeometry>
        </mxCell>
        <mxCell id="I7VolOuyJf7Wvv-ecBtf-46" value="将该链重构成红黑树" style="whiteSpace=wrap;html=1;fontFamily=Helvetica;fontSize=12;fontColor=default;" parent="1" vertex="1">
          <mxGeometry x="350" y="1710" width="120" height="60" as="geometry" />
        </mxCell>
        <mxCell id="I7VolOuyJf7Wvv-ecBtf-54" style="edgeStyle=orthogonalEdgeStyle;rounded=0;orthogonalLoop=1;jettySize=auto;html=1;fontFamily=Helvetica;fontSize=12;fontColor=default;" parent="1" source="I7VolOuyJf7Wvv-ecBtf-49" edge="1">
          <mxGeometry relative="1" as="geometry">
            <mxPoint x="-50" y="1360" as="targetPoint" />
            <Array as="points">
              <mxPoint x="180" y="1360" />
            </Array>
          </mxGeometry>
        </mxCell>
        <mxCell id="I7VolOuyJf7Wvv-ecBtf-55" value="是" style="edgeLabel;html=1;align=center;verticalAlign=middle;resizable=0;points=[];fontSize=12;fontFamily=Helvetica;fontColor=default;" parent="I7VolOuyJf7Wvv-ecBtf-54" vertex="1" connectable="0">
          <mxGeometry x="0.0889" y="-2" relative="1" as="geometry">
            <mxPoint as="offset" />
          </mxGeometry>
        </mxCell>
        <mxCell id="I7VolOuyJf7Wvv-ecBtf-81" style="edgeStyle=orthogonalEdgeStyle;rounded=0;orthogonalLoop=1;jettySize=auto;html=1;exitX=0.5;exitY=0;exitDx=0;exitDy=0;entryX=0.5;entryY=1;entryDx=0;entryDy=0;fontFamily=Helvetica;fontSize=12;fontColor=default;" parent="1" source="I7VolOuyJf7Wvv-ecBtf-49" target="I7VolOuyJf7Wvv-ecBtf-80" edge="1">
          <mxGeometry relative="1" as="geometry" />
        </mxCell>
        <mxCell id="I7VolOuyJf7Wvv-ecBtf-83" value="否" style="edgeLabel;html=1;align=center;verticalAlign=middle;resizable=0;points=[];fontSize=12;fontFamily=Helvetica;fontColor=default;" parent="I7VolOuyJf7Wvv-ecBtf-81" vertex="1" connectable="0">
          <mxGeometry x="0.2" y="1" relative="1" as="geometry">
            <mxPoint as="offset" />
          </mxGeometry>
        </mxCell>
        <mxCell id="I7VolOuyJf7Wvv-ecBtf-49" value="e节点的hash和equals判断是否和插入值的key都相等" style="rhombus;whiteSpace=wrap;html=1;" parent="1" vertex="1">
          <mxGeometry x="120" y="1180" width="120" height="100" as="geometry" />
        </mxCell>
        <mxCell id="I7VolOuyJf7Wvv-ecBtf-63" style="edgeStyle=orthogonalEdgeStyle;rounded=0;orthogonalLoop=1;jettySize=auto;html=1;fontFamily=Helvetica;fontSize=12;fontColor=default;" parent="1" source="I7VolOuyJf7Wvv-ecBtf-53" target="I7VolOuyJf7Wvv-ecBtf-60" edge="1">
          <mxGeometry relative="1" as="geometry" />
        </mxCell>
        <mxCell id="I7VolOuyJf7Wvv-ecBtf-53" value="将该节点记录为e" style="whiteSpace=wrap;html=1;fontFamily=Helvetica;fontSize=12;fontColor=default;" parent="1" vertex="1">
          <mxGeometry x="-110" y="810" width="120" height="60" as="geometry" />
        </mxCell>
        <mxCell id="I7VolOuyJf7Wvv-ecBtf-64" style="edgeStyle=orthogonalEdgeStyle;rounded=0;orthogonalLoop=1;jettySize=auto;html=1;entryX=0.5;entryY=0;entryDx=0;entryDy=0;fontFamily=Helvetica;fontSize=12;fontColor=default;" parent="1" source="I7VolOuyJf7Wvv-ecBtf-60" target="I7VolOuyJf7Wvv-ecBtf-62" edge="1">
          <mxGeometry relative="1" as="geometry" />
        </mxCell>
        <mxCell id="I7VolOuyJf7Wvv-ecBtf-67" value="否" style="edgeLabel;html=1;align=center;verticalAlign=middle;resizable=0;points=[];fontSize=12;fontFamily=Helvetica;fontColor=default;" parent="I7VolOuyJf7Wvv-ecBtf-64" vertex="1" connectable="0">
          <mxGeometry x="0.0167" y="-1" relative="1" as="geometry">
            <mxPoint as="offset" />
          </mxGeometry>
        </mxCell>
        <mxCell id="I7VolOuyJf7Wvv-ecBtf-69" style="edgeStyle=orthogonalEdgeStyle;rounded=0;orthogonalLoop=1;jettySize=auto;html=1;fontFamily=Helvetica;fontSize=12;fontColor=default;entryX=0;entryY=0.5;entryDx=0;entryDy=0;exitX=0.5;exitY=1;exitDx=0;exitDy=0;" parent="1" source="I7VolOuyJf7Wvv-ecBtf-60" target="I7VolOuyJf7Wvv-ecBtf-10" edge="1">
          <mxGeometry relative="1" as="geometry">
            <mxPoint x="600" y="980" as="targetPoint" />
            <Array as="points">
              <mxPoint x="610" y="1460" />
              <mxPoint x="610" y="680" />
            </Array>
          </mxGeometry>
        </mxCell>
        <mxCell id="I7VolOuyJf7Wvv-ecBtf-70" value="是" style="edgeLabel;html=1;align=center;verticalAlign=middle;resizable=0;points=[];fontSize=12;fontFamily=Helvetica;fontColor=default;" parent="I7VolOuyJf7Wvv-ecBtf-69" vertex="1" connectable="0">
          <mxGeometry x="-0.6662" relative="1" as="geometry">
            <mxPoint x="-209" as="offset" />
          </mxGeometry>
        </mxCell>
        <mxCell id="I7VolOuyJf7Wvv-ecBtf-60" value="e是否为空节点" style="rhombus;whiteSpace=wrap;html=1;" parent="1" vertex="1">
          <mxGeometry x="-110" y="1360" width="120" height="100" as="geometry" />
        </mxCell>
        <mxCell id="I7VolOuyJf7Wvv-ecBtf-66" style="edgeStyle=orthogonalEdgeStyle;rounded=0;orthogonalLoop=1;jettySize=auto;html=1;entryX=0.5;entryY=0;entryDx=0;entryDy=0;fontFamily=Helvetica;fontSize=12;fontColor=default;" parent="1" source="I7VolOuyJf7Wvv-ecBtf-62" target="I7VolOuyJf7Wvv-ecBtf-65" edge="1">
          <mxGeometry relative="1" as="geometry" />
        </mxCell>
        <mxCell id="I7VolOuyJf7Wvv-ecBtf-68" value="符合" style="edgeLabel;html=1;align=center;verticalAlign=middle;resizable=0;points=[];fontSize=12;fontFamily=Helvetica;fontColor=default;" parent="I7VolOuyJf7Wvv-ecBtf-66" vertex="1" connectable="0">
          <mxGeometry x="-0.2625" y="3" relative="1" as="geometry">
            <mxPoint as="offset" />
          </mxGeometry>
        </mxCell>
        <mxCell id="H929KgQZZX53LLDJEgm1-1" style="edgeStyle=orthogonalEdgeStyle;rounded=0;orthogonalLoop=1;jettySize=auto;html=1;fontFamily=Helvetica;fontSize=12;fontColor=default;exitX=1;exitY=0.5;exitDx=0;exitDy=0;" parent="1" source="I7VolOuyJf7Wvv-ecBtf-62" edge="1">
          <mxGeometry relative="1" as="geometry">
            <mxPoint x="660" y="690" as="targetPoint" />
            <mxPoint x="40" y="1590" as="sourcePoint" />
            <Array as="points">
              <mxPoint x="10" y="1490" />
              <mxPoint x="620" y="1490" />
              <mxPoint x="620" y="690" />
              <mxPoint x="660" y="690" />
            </Array>
          </mxGeometry>
        </mxCell>
        <mxCell id="H929KgQZZX53LLDJEgm1-2" value="不符合" style="edgeLabel;html=1;align=center;verticalAlign=middle;resizable=0;points=[];fontSize=12;fontFamily=Helvetica;fontColor=default;" parent="H929KgQZZX53LLDJEgm1-1" vertex="1" connectable="0">
          <mxGeometry x="-0.9465" y="1" relative="1" as="geometry">
            <mxPoint as="offset" />
          </mxGeometry>
        </mxCell>
        <mxCell id="I7VolOuyJf7Wvv-ecBtf-62" value="e.value为空或onlyIfAbsent == false" style="rhombus;whiteSpace=wrap;html=1;" parent="1" vertex="1">
          <mxGeometry x="-110" y="1520" width="120" height="100" as="geometry" />
        </mxCell>
        <mxCell id="I7VolOuyJf7Wvv-ecBtf-75" style="edgeStyle=orthogonalEdgeStyle;rounded=0;orthogonalLoop=1;jettySize=auto;html=1;entryX=0;entryY=0.5;entryDx=0;entryDy=0;fontFamily=Helvetica;fontSize=12;fontColor=default;" parent="1" source="I7VolOuyJf7Wvv-ecBtf-65" target="I7VolOuyJf7Wvv-ecBtf-74" edge="1">
          <mxGeometry relative="1" as="geometry" />
        </mxCell>
        <mxCell id="I7VolOuyJf7Wvv-ecBtf-65" value="用value替换e.value&lt;br&gt;并返回旧的value值" style="whiteSpace=wrap;html=1;fontFamily=Helvetica;fontSize=12;fontColor=default;" parent="1" vertex="1">
          <mxGeometry x="-110" y="1700" width="120" height="60" as="geometry" />
        </mxCell>
        <mxCell id="I7VolOuyJf7Wvv-ecBtf-74" value="end" style="whiteSpace=wrap;html=1;fontFamily=Helvetica;fontSize=12;fontColor=default;" parent="1" vertex="1">
          <mxGeometry x="-30" y="2050" width="120" height="60" as="geometry" />
        </mxCell>
        <mxCell id="I7VolOuyJf7Wvv-ecBtf-84" style="edgeStyle=orthogonalEdgeStyle;rounded=0;orthogonalLoop=1;jettySize=auto;html=1;entryX=0.5;entryY=0;entryDx=0;entryDy=0;fontFamily=Helvetica;fontSize=12;fontColor=default;" parent="1" source="I7VolOuyJf7Wvv-ecBtf-77" target="I7VolOuyJf7Wvv-ecBtf-60" edge="1">
          <mxGeometry relative="1" as="geometry" />
        </mxCell>
        <mxCell id="I7VolOuyJf7Wvv-ecBtf-77" value="按红黑树节点的插入方式，并记录返回值为e" style="whiteSpace=wrap;html=1;fontFamily=Helvetica;fontSize=12;fontColor=default;" parent="1" vertex="1">
          <mxGeometry x="90" y="880" width="120" height="60" as="geometry" />
        </mxCell>
        <mxCell id="I7VolOuyJf7Wvv-ecBtf-82" style="edgeStyle=orthogonalEdgeStyle;rounded=0;orthogonalLoop=1;jettySize=auto;html=1;entryX=0;entryY=0.5;entryDx=0;entryDy=0;fontFamily=Helvetica;fontSize=12;fontColor=default;" parent="1" source="I7VolOuyJf7Wvv-ecBtf-80" target="I7VolOuyJf7Wvv-ecBtf-35" edge="1">
          <mxGeometry relative="1" as="geometry" />
        </mxCell>
        <mxCell id="I7VolOuyJf7Wvv-ecBtf-80" value="p=e" style="whiteSpace=wrap;html=1;fontFamily=Helvetica;fontSize=12;fontColor=default;" parent="1" vertex="1">
          <mxGeometry x="120" y="1030" width="120" height="60" as="geometry" />
        </mxCell>
        <mxCell id="qneDDgAVLuNBhGyeFWzu-1" value="" style="shape=flexArrow;endArrow=classic;html=1;rounded=0;fontFamily=Helvetica;fontSize=12;fontColor=default;exitX=1;exitY=0.5;exitDx=0;exitDy=0;" parent="1" source="I7VolOuyJf7Wvv-ecBtf-10" target="qneDDgAVLuNBhGyeFWzu-2" edge="1">
          <mxGeometry width="50" height="50" relative="1" as="geometry">
            <mxPoint x="530" y="550" as="sourcePoint" />
            <mxPoint x="900" y="560" as="targetPoint" />
          </mxGeometry>
        </mxCell>
        <mxCell id="qneDDgAVLuNBhGyeFWzu-2" value="使用迭代器迭代的时候会判断这个modCounnt，如果发现与创建迭代器时赋的值不相等，就代表hashmap表有修改，会报错" style="shape=document;whiteSpace=wrap;html=1;boundedLbl=1;fontFamily=Helvetica;fontSize=12;fontColor=default;" parent="1" vertex="1">
          <mxGeometry x="930" y="570" width="440" height="80" as="geometry" />
        </mxCell>
        <mxCell id="PtOXKJsrp-DkhZweEY3k-1" value="" style="shape=flexArrow;endArrow=classic;html=1;rounded=0;fontColor=#FF00FF;" edge="1" parent="1">
          <mxGeometry width="50" height="50" relative="1" as="geometry">
            <mxPoint x="480" y="180" as="sourcePoint" />
            <mxPoint x="2150" y="180" as="targetPoint" />
          </mxGeometry>
        </mxCell>
        <mxCell id="PtOXKJsrp-DkhZweEY3k-2" value="逻辑流程" style="edgeLabel;html=1;align=center;verticalAlign=middle;resizable=0;points=[];fontColor=#FF00FF;" vertex="1" connectable="0" parent="PtOXKJsrp-DkhZweEY3k-1">
          <mxGeometry x="-0.5679" y="3" relative="1" as="geometry">
            <mxPoint as="offset" />
          </mxGeometry>
        </mxCell>
        <mxCell id="PtOXKJsrp-DkhZweEY3k-5" style="edgeStyle=orthogonalEdgeStyle;rounded=0;orthogonalLoop=1;jettySize=auto;html=1;entryX=0.5;entryY=0;entryDx=0;entryDy=0;fontColor=#000000;" edge="1" parent="1" source="PtOXKJsrp-DkhZweEY3k-3" target="PtOXKJsrp-DkhZweEY3k-4">
          <mxGeometry relative="1" as="geometry" />
        </mxCell>
        <mxCell id="PtOXKJsrp-DkhZweEY3k-3" value="&lt;font color=&quot;#000000&quot;&gt;start&lt;/font&gt;" style="whiteSpace=wrap;html=1;fontColor=#FF00FF;" vertex="1" parent="1">
          <mxGeometry x="2300" y="160" width="120" height="60" as="geometry" />
        </mxCell>
        <mxCell id="PtOXKJsrp-DkhZweEY3k-7" style="edgeStyle=orthogonalEdgeStyle;rounded=0;orthogonalLoop=1;jettySize=auto;html=1;fontColor=#000000;" edge="1" parent="1" source="PtOXKJsrp-DkhZweEY3k-4" target="PtOXKJsrp-DkhZweEY3k-6">
          <mxGeometry relative="1" as="geometry" />
        </mxCell>
        <mxCell id="PtOXKJsrp-DkhZweEY3k-32" value="否" style="edgeLabel;html=1;align=center;verticalAlign=middle;resizable=0;points=[];fontColor=#000000;" vertex="1" connectable="0" parent="PtOXKJsrp-DkhZweEY3k-7">
          <mxGeometry x="-0.1538" relative="1" as="geometry">
            <mxPoint as="offset" />
          </mxGeometry>
        </mxCell>
        <mxCell id="PtOXKJsrp-DkhZweEY3k-10" style="edgeStyle=orthogonalEdgeStyle;rounded=0;orthogonalLoop=1;jettySize=auto;html=1;entryX=0.5;entryY=0;entryDx=0;entryDy=0;fontColor=#000000;" edge="1" parent="1" source="PtOXKJsrp-DkhZweEY3k-4" target="PtOXKJsrp-DkhZweEY3k-9">
          <mxGeometry relative="1" as="geometry" />
        </mxCell>
        <mxCell id="PtOXKJsrp-DkhZweEY3k-33" value="是" style="edgeLabel;html=1;align=center;verticalAlign=middle;resizable=0;points=[];fontColor=#000000;" vertex="1" connectable="0" parent="PtOXKJsrp-DkhZweEY3k-10">
          <mxGeometry x="-0.3667" y="-1" relative="1" as="geometry">
            <mxPoint as="offset" />
          </mxGeometry>
        </mxCell>
        <mxCell id="PtOXKJsrp-DkhZweEY3k-4" value="是否已初始化" style="rhombus;whiteSpace=wrap;html=1;fontFamily=Helvetica;fontSize=12;fontColor=default;" vertex="1" parent="1">
          <mxGeometry x="2290" y="310" width="140" height="130" as="geometry" />
        </mxCell>
        <mxCell id="PtOXKJsrp-DkhZweEY3k-8" style="edgeStyle=orthogonalEdgeStyle;rounded=0;orthogonalLoop=1;jettySize=auto;html=1;entryX=0.5;entryY=0;entryDx=0;entryDy=0;fontColor=#000000;" edge="1" parent="1" source="PtOXKJsrp-DkhZweEY3k-6" target="PtOXKJsrp-DkhZweEY3k-4">
          <mxGeometry relative="1" as="geometry">
            <Array as="points">
              <mxPoint x="2100" y="310" />
            </Array>
          </mxGeometry>
        </mxCell>
        <mxCell id="PtOXKJsrp-DkhZweEY3k-6" value="初始化" style="whiteSpace=wrap;html=1;fontColor=#000000;" vertex="1" parent="1">
          <mxGeometry x="2040" y="345" width="120" height="60" as="geometry" />
        </mxCell>
        <mxCell id="PtOXKJsrp-DkhZweEY3k-12" style="edgeStyle=orthogonalEdgeStyle;rounded=0;orthogonalLoop=1;jettySize=auto;html=1;fontColor=#000000;" edge="1" parent="1" source="PtOXKJsrp-DkhZweEY3k-9" target="PtOXKJsrp-DkhZweEY3k-11">
          <mxGeometry relative="1" as="geometry" />
        </mxCell>
        <mxCell id="PtOXKJsrp-DkhZweEY3k-9" value="通过hash计算的到桶为的头节点" style="whiteSpace=wrap;html=1;fontColor=#000000;" vertex="1" parent="1">
          <mxGeometry x="2300" y="560" width="120" height="60" as="geometry" />
        </mxCell>
        <mxCell id="PtOXKJsrp-DkhZweEY3k-14" style="edgeStyle=orthogonalEdgeStyle;rounded=0;orthogonalLoop=1;jettySize=auto;html=1;entryX=0.5;entryY=0;entryDx=0;entryDy=0;fontColor=#000000;" edge="1" parent="1" source="PtOXKJsrp-DkhZweEY3k-11" target="PtOXKJsrp-DkhZweEY3k-13">
          <mxGeometry relative="1" as="geometry" />
        </mxCell>
        <mxCell id="PtOXKJsrp-DkhZweEY3k-34" value="是" style="edgeLabel;html=1;align=center;verticalAlign=middle;resizable=0;points=[];fontColor=#000000;" vertex="1" connectable="0" parent="PtOXKJsrp-DkhZweEY3k-14">
          <mxGeometry x="-0.5423" y="1" relative="1" as="geometry">
            <mxPoint as="offset" />
          </mxGeometry>
        </mxCell>
        <mxCell id="PtOXKJsrp-DkhZweEY3k-17" style="edgeStyle=orthogonalEdgeStyle;rounded=0;orthogonalLoop=1;jettySize=auto;html=1;entryX=0.5;entryY=0;entryDx=0;entryDy=0;fontColor=#000000;" edge="1" parent="1" source="PtOXKJsrp-DkhZweEY3k-11" target="PtOXKJsrp-DkhZweEY3k-16">
          <mxGeometry relative="1" as="geometry" />
        </mxCell>
        <mxCell id="PtOXKJsrp-DkhZweEY3k-35" value="否" style="edgeLabel;html=1;align=center;verticalAlign=middle;resizable=0;points=[];fontColor=#000000;" vertex="1" connectable="0" parent="PtOXKJsrp-DkhZweEY3k-17">
          <mxGeometry x="-0.3143" relative="1" as="geometry">
            <mxPoint as="offset" />
          </mxGeometry>
        </mxCell>
        <mxCell id="PtOXKJsrp-DkhZweEY3k-11" value="节点是否为空" style="rhombus;whiteSpace=wrap;html=1;fontFamily=Helvetica;fontSize=12;fontColor=default;" vertex="1" parent="1">
          <mxGeometry x="2290" y="690" width="140" height="130" as="geometry" />
        </mxCell>
        <mxCell id="PtOXKJsrp-DkhZweEY3k-50" style="edgeStyle=orthogonalEdgeStyle;rounded=0;orthogonalLoop=1;jettySize=auto;html=1;fontColor=#000000;entryX=0.5;entryY=0;entryDx=0;entryDy=0;" edge="1" parent="1" source="PtOXKJsrp-DkhZweEY3k-13" target="PtOXKJsrp-DkhZweEY3k-43">
          <mxGeometry relative="1" as="geometry">
            <mxPoint x="2720" y="1410" as="targetPoint" />
          </mxGeometry>
        </mxCell>
        <mxCell id="PtOXKJsrp-DkhZweEY3k-13" value="用key和value构造节点替换节点" style="whiteSpace=wrap;html=1;fontColor=#000000;" vertex="1" parent="1">
          <mxGeometry x="2570" y="950" width="120" height="60" as="geometry" />
        </mxCell>
        <mxCell id="PtOXKJsrp-DkhZweEY3k-19" style="edgeStyle=orthogonalEdgeStyle;rounded=0;orthogonalLoop=1;jettySize=auto;html=1;entryX=1;entryY=0.5;entryDx=0;entryDy=0;fontColor=#000000;" edge="1" parent="1" source="PtOXKJsrp-DkhZweEY3k-16" target="PtOXKJsrp-DkhZweEY3k-18">
          <mxGeometry relative="1" as="geometry" />
        </mxCell>
        <mxCell id="PtOXKJsrp-DkhZweEY3k-36" value="是" style="edgeLabel;html=1;align=center;verticalAlign=middle;resizable=0;points=[];fontColor=#000000;" vertex="1" connectable="0" parent="PtOXKJsrp-DkhZweEY3k-19">
          <mxGeometry y="4" relative="1" as="geometry">
            <mxPoint as="offset" />
          </mxGeometry>
        </mxCell>
        <mxCell id="PtOXKJsrp-DkhZweEY3k-23" style="edgeStyle=orthogonalEdgeStyle;rounded=0;orthogonalLoop=1;jettySize=auto;html=1;entryX=0.5;entryY=0;entryDx=0;entryDy=0;fontColor=#000000;" edge="1" parent="1" source="PtOXKJsrp-DkhZweEY3k-16" target="PtOXKJsrp-DkhZweEY3k-22">
          <mxGeometry relative="1" as="geometry" />
        </mxCell>
        <mxCell id="PtOXKJsrp-DkhZweEY3k-37" value="否" style="edgeLabel;html=1;align=center;verticalAlign=middle;resizable=0;points=[];fontColor=#000000;" vertex="1" connectable="0" parent="PtOXKJsrp-DkhZweEY3k-23">
          <mxGeometry x="-0.1461" relative="1" as="geometry">
            <mxPoint as="offset" />
          </mxGeometry>
        </mxCell>
        <mxCell id="PtOXKJsrp-DkhZweEY3k-16" value="判断是否同一个key" style="rhombus;whiteSpace=wrap;html=1;fontFamily=Helvetica;fontSize=12;fontColor=default;" vertex="1" parent="1">
          <mxGeometry x="2290" y="890" width="140" height="130" as="geometry" />
        </mxCell>
        <mxCell id="PtOXKJsrp-DkhZweEY3k-40" style="edgeStyle=orthogonalEdgeStyle;rounded=0;orthogonalLoop=1;jettySize=auto;html=1;fontColor=#000000;entryX=0;entryY=0.433;entryDx=0;entryDy=0;entryPerimeter=0;" edge="1" parent="1" source="PtOXKJsrp-DkhZweEY3k-18" target="PtOXKJsrp-DkhZweEY3k-29">
          <mxGeometry relative="1" as="geometry">
            <mxPoint x="2120" y="1490" as="targetPoint" />
            <Array as="points">
              <mxPoint x="2070" y="2156" />
            </Array>
          </mxGeometry>
        </mxCell>
        <mxCell id="PtOXKJsrp-DkhZweEY3k-18" value="替换value" style="whiteSpace=wrap;html=1;fontColor=#000000;" vertex="1" parent="1">
          <mxGeometry x="2050" y="925" width="120" height="65" as="geometry" />
        </mxCell>
        <mxCell id="PtOXKJsrp-DkhZweEY3k-20" value="注意onlyIfAbsent为true" style="shape=document;whiteSpace=wrap;html=1;boundedLbl=1;fontColor=#000000;" vertex="1" parent="1">
          <mxGeometry x="1810" y="880" width="120" height="80" as="geometry" />
        </mxCell>
        <mxCell id="PtOXKJsrp-DkhZweEY3k-21" value="" style="shape=flexArrow;endArrow=classic;html=1;rounded=0;fontColor=#000000;entryX=1.017;entryY=0.425;entryDx=0;entryDy=0;entryPerimeter=0;exitX=0;exitY=0.5;exitDx=0;exitDy=0;" edge="1" parent="1" source="PtOXKJsrp-DkhZweEY3k-18" target="PtOXKJsrp-DkhZweEY3k-20">
          <mxGeometry width="50" height="50" relative="1" as="geometry">
            <mxPoint x="2350" y="1070" as="sourcePoint" />
            <mxPoint x="2400" y="1020" as="targetPoint" />
          </mxGeometry>
        </mxCell>
        <mxCell id="PtOXKJsrp-DkhZweEY3k-24" style="edgeStyle=orthogonalEdgeStyle;rounded=0;orthogonalLoop=1;jettySize=auto;html=1;entryX=0.5;entryY=1;entryDx=0;entryDy=0;fontColor=#000000;exitX=0;exitY=0.5;exitDx=0;exitDy=0;" edge="1" parent="1" source="PtOXKJsrp-DkhZweEY3k-25" target="PtOXKJsrp-DkhZweEY3k-18">
          <mxGeometry relative="1" as="geometry" />
        </mxCell>
        <mxCell id="PtOXKJsrp-DkhZweEY3k-39" value="是" style="edgeLabel;html=1;align=center;verticalAlign=middle;resizable=0;points=[];fontColor=#000000;" vertex="1" connectable="0" parent="PtOXKJsrp-DkhZweEY3k-24">
          <mxGeometry x="-0.5837" y="-4" relative="1" as="geometry">
            <mxPoint as="offset" />
          </mxGeometry>
        </mxCell>
        <mxCell id="PtOXKJsrp-DkhZweEY3k-26" style="edgeStyle=orthogonalEdgeStyle;rounded=0;orthogonalLoop=1;jettySize=auto;html=1;entryX=0.5;entryY=0;entryDx=0;entryDy=0;fontColor=#000000;" edge="1" parent="1" source="PtOXKJsrp-DkhZweEY3k-22" target="PtOXKJsrp-DkhZweEY3k-25">
          <mxGeometry relative="1" as="geometry" />
        </mxCell>
        <mxCell id="PtOXKJsrp-DkhZweEY3k-22" value="迭代一直找到key相同的节点" style="whiteSpace=wrap;html=1;fontColor=#000000;" vertex="1" parent="1">
          <mxGeometry x="2300" y="1109" width="120" height="60" as="geometry" />
        </mxCell>
        <mxCell id="PtOXKJsrp-DkhZweEY3k-28" style="edgeStyle=orthogonalEdgeStyle;rounded=0;orthogonalLoop=1;jettySize=auto;html=1;entryX=0.5;entryY=0;entryDx=0;entryDy=0;fontColor=#000000;" edge="1" parent="1" source="PtOXKJsrp-DkhZweEY3k-25" target="PtOXKJsrp-DkhZweEY3k-27">
          <mxGeometry relative="1" as="geometry" />
        </mxCell>
        <mxCell id="PtOXKJsrp-DkhZweEY3k-38" value="否" style="edgeLabel;html=1;align=center;verticalAlign=middle;resizable=0;points=[];fontColor=#000000;" vertex="1" connectable="0" parent="PtOXKJsrp-DkhZweEY3k-28">
          <mxGeometry x="-0.1778" y="-3" relative="1" as="geometry">
            <mxPoint as="offset" />
          </mxGeometry>
        </mxCell>
        <mxCell id="PtOXKJsrp-DkhZweEY3k-25" value="找到key节点？" style="rhombus;whiteSpace=wrap;html=1;fontFamily=Helvetica;fontSize=12;fontColor=default;" vertex="1" parent="1">
          <mxGeometry x="2290" y="1230" width="140" height="130" as="geometry" />
        </mxCell>
        <mxCell id="PtOXKJsrp-DkhZweEY3k-30" style="edgeStyle=orthogonalEdgeStyle;rounded=0;orthogonalLoop=1;jettySize=auto;html=1;fontColor=#000000;" edge="1" parent="1" source="PtOXKJsrp-DkhZweEY3k-27">
          <mxGeometry relative="1" as="geometry">
            <mxPoint x="2360" y="1570" as="targetPoint" />
          </mxGeometry>
        </mxCell>
        <mxCell id="PtOXKJsrp-DkhZweEY3k-27" value="构造新节点加到末尾" style="whiteSpace=wrap;html=1;fontColor=#000000;" vertex="1" parent="1">
          <mxGeometry x="2300" y="1450" width="120" height="60" as="geometry" />
        </mxCell>
        <mxCell id="PtOXKJsrp-DkhZweEY3k-29" value="end" style="whiteSpace=wrap;html=1;fontColor=#000000;" vertex="1" parent="1">
          <mxGeometry x="2290" y="2130" width="120" height="60" as="geometry" />
        </mxCell>
        <mxCell id="PtOXKJsrp-DkhZweEY3k-45" style="edgeStyle=orthogonalEdgeStyle;rounded=0;orthogonalLoop=1;jettySize=auto;html=1;fontColor=#000000;" edge="1" parent="1" source="PtOXKJsrp-DkhZweEY3k-41" target="PtOXKJsrp-DkhZweEY3k-44">
          <mxGeometry relative="1" as="geometry" />
        </mxCell>
        <mxCell id="PtOXKJsrp-DkhZweEY3k-46" value="是" style="edgeLabel;html=1;align=center;verticalAlign=middle;resizable=0;points=[];fontColor=#000000;" vertex="1" connectable="0" parent="PtOXKJsrp-DkhZweEY3k-45">
          <mxGeometry x="-0.22" y="2" relative="1" as="geometry">
            <mxPoint y="1" as="offset" />
          </mxGeometry>
        </mxCell>
        <mxCell id="PtOXKJsrp-DkhZweEY3k-55" style="edgeStyle=orthogonalEdgeStyle;rounded=0;orthogonalLoop=1;jettySize=auto;html=1;entryX=0.443;entryY=0.038;entryDx=0;entryDy=0;entryPerimeter=0;fontColor=#000000;" edge="1" parent="1" source="PtOXKJsrp-DkhZweEY3k-41" target="PtOXKJsrp-DkhZweEY3k-43">
          <mxGeometry relative="1" as="geometry" />
        </mxCell>
        <mxCell id="PtOXKJsrp-DkhZweEY3k-56" value="否" style="edgeLabel;html=1;align=center;verticalAlign=middle;resizable=0;points=[];fontColor=#000000;" vertex="1" connectable="0" parent="PtOXKJsrp-DkhZweEY3k-55">
          <mxGeometry x="-0.441" y="1" relative="1" as="geometry">
            <mxPoint as="offset" />
          </mxGeometry>
        </mxCell>
        <mxCell id="PtOXKJsrp-DkhZweEY3k-41" value="链长是否超过8？" style="rhombus;whiteSpace=wrap;html=1;fontFamily=Helvetica;fontSize=12;fontColor=default;" vertex="1" parent="1">
          <mxGeometry x="2290" y="1570" width="140" height="130" as="geometry" />
        </mxCell>
        <mxCell id="PtOXKJsrp-DkhZweEY3k-49" style="edgeStyle=orthogonalEdgeStyle;rounded=0;orthogonalLoop=1;jettySize=auto;html=1;entryX=0.5;entryY=0;entryDx=0;entryDy=0;fontColor=#000000;" edge="1" parent="1" source="PtOXKJsrp-DkhZweEY3k-43" target="PtOXKJsrp-DkhZweEY3k-47">
          <mxGeometry relative="1" as="geometry" />
        </mxCell>
        <mxCell id="PtOXKJsrp-DkhZweEY3k-51" value="是" style="edgeLabel;html=1;align=center;verticalAlign=middle;resizable=0;points=[];fontColor=#000000;" vertex="1" connectable="0" parent="PtOXKJsrp-DkhZweEY3k-49">
          <mxGeometry x="0.0571" y="2" relative="1" as="geometry">
            <mxPoint as="offset" />
          </mxGeometry>
        </mxCell>
        <mxCell id="PtOXKJsrp-DkhZweEY3k-57" style="edgeStyle=orthogonalEdgeStyle;rounded=0;orthogonalLoop=1;jettySize=auto;html=1;entryX=0.5;entryY=0;entryDx=0;entryDy=0;fontColor=#000000;" edge="1" parent="1" source="PtOXKJsrp-DkhZweEY3k-43" target="PtOXKJsrp-DkhZweEY3k-29">
          <mxGeometry relative="1" as="geometry">
            <Array as="points">
              <mxPoint x="2630" y="1870" />
              <mxPoint x="2350" y="1870" />
            </Array>
          </mxGeometry>
        </mxCell>
        <mxCell id="PtOXKJsrp-DkhZweEY3k-58" value="否" style="edgeLabel;html=1;align=center;verticalAlign=middle;resizable=0;points=[];fontColor=#000000;" vertex="1" connectable="0" parent="PtOXKJsrp-DkhZweEY3k-57">
          <mxGeometry x="-0.4826" y="4" relative="1" as="geometry">
            <mxPoint as="offset" />
          </mxGeometry>
        </mxCell>
        <mxCell id="PtOXKJsrp-DkhZweEY3k-43" value="是否需要扩容" style="rhombus;whiteSpace=wrap;html=1;fontFamily=Helvetica;fontSize=12;fontColor=default;" vertex="1" parent="1">
          <mxGeometry x="2560" y="1735" width="140" height="130" as="geometry" />
        </mxCell>
        <mxCell id="PtOXKJsrp-DkhZweEY3k-48" style="edgeStyle=orthogonalEdgeStyle;rounded=0;orthogonalLoop=1;jettySize=auto;html=1;entryX=0;entryY=0.5;entryDx=0;entryDy=0;fontColor=#000000;" edge="1" parent="1" source="PtOXKJsrp-DkhZweEY3k-44" target="PtOXKJsrp-DkhZweEY3k-43">
          <mxGeometry relative="1" as="geometry" />
        </mxCell>
        <mxCell id="PtOXKJsrp-DkhZweEY3k-44" value="重构成红黑树" style="whiteSpace=wrap;html=1;fontColor=#000000;" vertex="1" parent="1">
          <mxGeometry x="2300" y="1770" width="120" height="60" as="geometry" />
        </mxCell>
        <mxCell id="PtOXKJsrp-DkhZweEY3k-52" style="edgeStyle=orthogonalEdgeStyle;rounded=0;orthogonalLoop=1;jettySize=auto;html=1;entryX=1;entryY=0.5;entryDx=0;entryDy=0;fontColor=#000000;" edge="1" parent="1" source="PtOXKJsrp-DkhZweEY3k-47" target="PtOXKJsrp-DkhZweEY3k-29">
          <mxGeometry relative="1" as="geometry">
            <Array as="points">
              <mxPoint x="2630" y="2160" />
            </Array>
          </mxGeometry>
        </mxCell>
        <mxCell id="PtOXKJsrp-DkhZweEY3k-47" value="扩容" style="whiteSpace=wrap;html=1;fontColor=#000000;" vertex="1" parent="1">
          <mxGeometry x="2570" y="2010" width="120" height="60" as="geometry" />
        </mxCell>
      </root>
    </mxGraphModel>
  </diagram>
  <diagram id="euXci-Q9xNUGhIbNTdfW" name="resize扩容">
    <mxGraphModel dx="2013" dy="653" grid="1" gridSize="10" guides="1" tooltips="1" connect="1" arrows="1" fold="1" page="1" pageScale="1" pageWidth="827" pageHeight="1169" math="0" shadow="0">
      <root>
        <mxCell id="0" />
        <mxCell id="1" parent="0" />
        <mxCell id="-2UY0wz9JWXdvg5dUbAX-7" style="edgeStyle=orthogonalEdgeStyle;rounded=0;orthogonalLoop=1;jettySize=auto;html=1;fontFamily=Helvetica;fontSize=12;fontColor=default;" parent="1" source="-2UY0wz9JWXdvg5dUbAX-1" target="-2UY0wz9JWXdvg5dUbAX-2" edge="1">
          <mxGeometry relative="1" as="geometry" />
        </mxCell>
        <mxCell id="-2UY0wz9JWXdvg5dUbAX-1" value="start" style="whiteSpace=wrap;html=1;fontFamily=Helvetica;fontSize=12;fontColor=default;" parent="1" vertex="1">
          <mxGeometry x="390" y="70" width="120" height="60" as="geometry" />
        </mxCell>
        <mxCell id="-2UY0wz9JWXdvg5dUbAX-8" style="edgeStyle=orthogonalEdgeStyle;rounded=0;orthogonalLoop=1;jettySize=auto;html=1;entryX=0.5;entryY=0;entryDx=0;entryDy=0;fontFamily=Helvetica;fontSize=12;fontColor=default;" parent="1" source="-2UY0wz9JWXdvg5dUbAX-2" target="-2UY0wz9JWXdvg5dUbAX-3" edge="1">
          <mxGeometry relative="1" as="geometry" />
        </mxCell>
        <mxCell id="-2UY0wz9JWXdvg5dUbAX-2" value="记录旧table为oldTab&lt;br&gt;记录旧表的长度为oldCab&lt;br&gt;记录旧的阀值为oldThr&lt;br&gt;初始化新表长度newCap，新阀值newThr" style="whiteSpace=wrap;html=1;fontFamily=Helvetica;fontSize=12;fontColor=default;" parent="1" vertex="1">
          <mxGeometry x="330" y="220" width="240" height="60" as="geometry" />
        </mxCell>
        <mxCell id="-2UY0wz9JWXdvg5dUbAX-11" style="edgeStyle=orthogonalEdgeStyle;rounded=0;orthogonalLoop=1;jettySize=auto;html=1;entryX=1;entryY=0.5;entryDx=0;entryDy=0;fontFamily=Helvetica;fontSize=12;fontColor=default;" parent="1" source="-2UY0wz9JWXdvg5dUbAX-3" target="-2UY0wz9JWXdvg5dUbAX-6" edge="1">
          <mxGeometry relative="1" as="geometry" />
        </mxCell>
        <mxCell id="-2UY0wz9JWXdvg5dUbAX-12" value="不是" style="edgeLabel;html=1;align=center;verticalAlign=middle;resizable=0;points=[];fontSize=12;fontFamily=Helvetica;fontColor=default;" parent="-2UY0wz9JWXdvg5dUbAX-11" vertex="1" connectable="0">
          <mxGeometry x="-0.28" y="-1" relative="1" as="geometry">
            <mxPoint as="offset" />
          </mxGeometry>
        </mxCell>
        <mxCell id="YT8NjMzOfj5ycWAdWLNe-4" value="是" style="edgeStyle=orthogonalEdgeStyle;rounded=0;orthogonalLoop=1;jettySize=auto;html=1;entryX=0.5;entryY=0;entryDx=0;entryDy=0;fontFamily=Helvetica;fontSize=12;fontColor=default;" parent="1" source="-2UY0wz9JWXdvg5dUbAX-3" target="YT8NjMzOfj5ycWAdWLNe-2" edge="1">
          <mxGeometry relative="1" as="geometry" />
        </mxCell>
        <mxCell id="-2UY0wz9JWXdvg5dUbAX-3" value="不是第一次扩容&lt;br&gt;oldTab &amp;gt; 0" style="rhombus;whiteSpace=wrap;html=1;fontFamily=Helvetica;fontSize=12;fontColor=default;" parent="1" vertex="1">
          <mxGeometry x="380" y="340" width="140" height="130" as="geometry" />
        </mxCell>
        <mxCell id="-2UY0wz9JWXdvg5dUbAX-13" style="edgeStyle=orthogonalEdgeStyle;rounded=0;orthogonalLoop=1;jettySize=auto;html=1;entryX=1;entryY=0.5;entryDx=0;entryDy=0;fontFamily=Helvetica;fontSize=12;fontColor=default;" parent="1" source="-2UY0wz9JWXdvg5dUbAX-6" target="-2UY0wz9JWXdvg5dUbAX-9" edge="1">
          <mxGeometry relative="1" as="geometry" />
        </mxCell>
        <mxCell id="-2UY0wz9JWXdvg5dUbAX-14" value="是" style="edgeLabel;html=1;align=center;verticalAlign=middle;resizable=0;points=[];fontSize=12;fontFamily=Helvetica;fontColor=default;" parent="-2UY0wz9JWXdvg5dUbAX-13" vertex="1" connectable="0">
          <mxGeometry x="0.3" y="-3" relative="1" as="geometry">
            <mxPoint as="offset" />
          </mxGeometry>
        </mxCell>
        <mxCell id="-2UY0wz9JWXdvg5dUbAX-15" style="edgeStyle=orthogonalEdgeStyle;rounded=0;orthogonalLoop=1;jettySize=auto;html=1;entryX=0.5;entryY=0;entryDx=0;entryDy=0;fontFamily=Helvetica;fontSize=12;fontColor=default;" parent="1" source="-2UY0wz9JWXdvg5dUbAX-6" target="-2UY0wz9JWXdvg5dUbAX-10" edge="1">
          <mxGeometry relative="1" as="geometry" />
        </mxCell>
        <mxCell id="-2UY0wz9JWXdvg5dUbAX-16" value="否" style="edgeLabel;html=1;align=center;verticalAlign=middle;resizable=0;points=[];fontSize=12;fontFamily=Helvetica;fontColor=default;" parent="-2UY0wz9JWXdvg5dUbAX-15" vertex="1" connectable="0">
          <mxGeometry x="-0.0545" y="-3" relative="1" as="geometry">
            <mxPoint as="offset" />
          </mxGeometry>
        </mxCell>
        <mxCell id="-2UY0wz9JWXdvg5dUbAX-6" value="旧表长度大于等于限制的最大表长度" style="rhombus;whiteSpace=wrap;html=1;fontFamily=Helvetica;fontSize=12;fontColor=default;" parent="1" vertex="1">
          <mxGeometry x="140" y="340" width="140" height="130" as="geometry" />
        </mxCell>
        <mxCell id="-2UY0wz9JWXdvg5dUbAX-9" value="表的阀值设置为可取的最大值&lt;font color=&quot;#ff00ff&quot;&gt;MAXIMUN_CAPACITY&lt;/font&gt;，返回旧表oldTab" style="whiteSpace=wrap;html=1;fontFamily=Helvetica;fontSize=12;fontColor=default;" parent="1" vertex="1">
          <mxGeometry x="-120" y="375" width="160" height="60" as="geometry" />
        </mxCell>
        <mxCell id="-2UY0wz9JWXdvg5dUbAX-20" style="edgeStyle=orthogonalEdgeStyle;rounded=0;orthogonalLoop=1;jettySize=auto;html=1;entryX=0.5;entryY=0;entryDx=0;entryDy=0;fontFamily=Helvetica;fontSize=12;fontColor=default;" parent="1" source="-2UY0wz9JWXdvg5dUbAX-10" target="-2UY0wz9JWXdvg5dUbAX-18" edge="1">
          <mxGeometry relative="1" as="geometry" />
        </mxCell>
        <mxCell id="-2UY0wz9JWXdvg5dUbAX-10" value="新表长度等于旧表长度的2倍&lt;br&gt;newCap = oldCap &amp;lt;&amp;lt; 1" style="whiteSpace=wrap;html=1;fontFamily=Helvetica;fontSize=12;fontColor=default;" parent="1" vertex="1">
          <mxGeometry x="130" y="580" width="160" height="60" as="geometry" />
        </mxCell>
        <mxCell id="-2UY0wz9JWXdvg5dUbAX-21" style="edgeStyle=orthogonalEdgeStyle;rounded=0;orthogonalLoop=1;jettySize=auto;html=1;entryX=0.552;entryY=0;entryDx=0;entryDy=0;entryPerimeter=0;fontFamily=Helvetica;fontSize=12;fontColor=default;" parent="1" source="-2UY0wz9JWXdvg5dUbAX-18" target="-2UY0wz9JWXdvg5dUbAX-19" edge="1">
          <mxGeometry relative="1" as="geometry" />
        </mxCell>
        <mxCell id="-2UY0wz9JWXdvg5dUbAX-22" value="符合" style="edgeLabel;html=1;align=center;verticalAlign=middle;resizable=0;points=[];fontSize=12;fontFamily=Helvetica;fontColor=default;" parent="-2UY0wz9JWXdvg5dUbAX-21" vertex="1" connectable="0">
          <mxGeometry x="-0.0245" relative="1" as="geometry">
            <mxPoint as="offset" />
          </mxGeometry>
        </mxCell>
        <mxCell id="-2UY0wz9JWXdvg5dUbAX-18" value="新表长度小于最大表长度且旧表长度大于等于默认初始长度" style="rhombus;whiteSpace=wrap;html=1;fontFamily=Helvetica;fontSize=12;fontColor=default;" parent="1" vertex="1">
          <mxGeometry x="140" y="720" width="140" height="130" as="geometry" />
        </mxCell>
        <mxCell id="YT8NjMzOfj5ycWAdWLNe-12" style="edgeStyle=orthogonalEdgeStyle;rounded=0;orthogonalLoop=1;jettySize=auto;html=1;entryX=0.5;entryY=0;entryDx=0;entryDy=0;fontFamily=Helvetica;fontSize=12;fontColor=default;" parent="1" source="-2UY0wz9JWXdvg5dUbAX-19" target="YT8NjMzOfj5ycWAdWLNe-11" edge="1">
          <mxGeometry relative="1" as="geometry">
            <Array as="points">
              <mxPoint x="203" y="1130" />
              <mxPoint x="450" y="1130" />
            </Array>
          </mxGeometry>
        </mxCell>
        <mxCell id="-2UY0wz9JWXdvg5dUbAX-19" value="新阀值为旧阀值的两倍&lt;br&gt;newThr = oldThr &amp;lt;&amp;lt; 1" style="whiteSpace=wrap;html=1;fontFamily=Helvetica;fontSize=12;fontColor=default;" parent="1" vertex="1">
          <mxGeometry x="130" y="930" width="145" height="60" as="geometry" />
        </mxCell>
        <mxCell id="YT8NjMzOfj5ycWAdWLNe-5" style="edgeStyle=orthogonalEdgeStyle;rounded=0;orthogonalLoop=1;jettySize=auto;html=1;fontFamily=Helvetica;fontSize=12;fontColor=default;" parent="1" source="YT8NjMzOfj5ycWAdWLNe-2" target="YT8NjMzOfj5ycWAdWLNe-3" edge="1">
          <mxGeometry relative="1" as="geometry" />
        </mxCell>
        <mxCell id="YT8NjMzOfj5ycWAdWLNe-6" value="是" style="edgeLabel;html=1;align=center;verticalAlign=middle;resizable=0;points=[];fontSize=12;fontFamily=Helvetica;fontColor=default;" parent="YT8NjMzOfj5ycWAdWLNe-5" vertex="1" connectable="0">
          <mxGeometry x="-0.0667" y="-3" relative="1" as="geometry">
            <mxPoint as="offset" />
          </mxGeometry>
        </mxCell>
        <mxCell id="YT8NjMzOfj5ycWAdWLNe-8" style="edgeStyle=orthogonalEdgeStyle;rounded=0;orthogonalLoop=1;jettySize=auto;html=1;entryX=0.5;entryY=0;entryDx=0;entryDy=0;fontFamily=Helvetica;fontSize=12;fontColor=default;" parent="1" source="YT8NjMzOfj5ycWAdWLNe-2" target="YT8NjMzOfj5ycWAdWLNe-7" edge="1">
          <mxGeometry relative="1" as="geometry" />
        </mxCell>
        <mxCell id="YT8NjMzOfj5ycWAdWLNe-2" value="如果new的时候有提供参数&lt;br&gt;oldThr &amp;gt; 0" style="rhombus;whiteSpace=wrap;html=1;fontFamily=Helvetica;fontSize=12;fontColor=default;" parent="1" vertex="1">
          <mxGeometry x="380" y="545" width="140" height="130" as="geometry" />
        </mxCell>
        <mxCell id="YT8NjMzOfj5ycWAdWLNe-13" style="edgeStyle=orthogonalEdgeStyle;rounded=0;orthogonalLoop=1;jettySize=auto;html=1;entryX=0.5;entryY=0;entryDx=0;entryDy=0;fontFamily=Helvetica;fontSize=12;fontColor=default;" parent="1" source="YT8NjMzOfj5ycWAdWLNe-3" target="YT8NjMzOfj5ycWAdWLNe-11" edge="1">
          <mxGeometry relative="1" as="geometry" />
        </mxCell>
        <mxCell id="YT8NjMzOfj5ycWAdWLNe-3" value="使用提供的参数初始化表长度&lt;br&gt;newCap = oldThr" style="whiteSpace=wrap;html=1;fontFamily=Helvetica;fontSize=12;fontColor=default;" parent="1" vertex="1">
          <mxGeometry x="375" y="930" width="150" height="60" as="geometry" />
        </mxCell>
        <mxCell id="YT8NjMzOfj5ycWAdWLNe-14" style="edgeStyle=orthogonalEdgeStyle;rounded=0;orthogonalLoop=1;jettySize=auto;html=1;fontFamily=Helvetica;fontSize=12;fontColor=default;" parent="1" source="YT8NjMzOfj5ycWAdWLNe-7" target="YT8NjMzOfj5ycWAdWLNe-11" edge="1">
          <mxGeometry relative="1" as="geometry">
            <Array as="points">
              <mxPoint x="675" y="1130" />
              <mxPoint x="450" y="1130" />
            </Array>
          </mxGeometry>
        </mxCell>
        <mxCell id="YT8NjMzOfj5ycWAdWLNe-7" value="使用默认配置&lt;br&gt;newCap = 16&lt;br&gt;newThr = 16 * 0.75" style="whiteSpace=wrap;html=1;fontFamily=Helvetica;fontSize=12;fontColor=default;" parent="1" vertex="1">
          <mxGeometry x="580" y="930" width="190" height="60" as="geometry" />
        </mxCell>
        <mxCell id="YT8NjMzOfj5ycWAdWLNe-9" value="初始化会延迟到第一次put调用，&lt;br&gt;即第一次扩容" style="shape=document;whiteSpace=wrap;html=1;boundedLbl=1;fontFamily=Helvetica;fontSize=12;fontColor=default;" parent="1" vertex="1">
          <mxGeometry x="80" y="60" width="210" height="80" as="geometry" />
        </mxCell>
        <mxCell id="YT8NjMzOfj5ycWAdWLNe-10" value="" style="shape=flexArrow;endArrow=classic;html=1;rounded=0;fontFamily=Helvetica;fontSize=12;fontColor=default;entryX=1;entryY=0.25;entryDx=0;entryDy=0;exitX=0;exitY=0.5;exitDx=0;exitDy=0;" parent="1" source="-2UY0wz9JWXdvg5dUbAX-1" target="YT8NjMzOfj5ycWAdWLNe-9" edge="1">
          <mxGeometry width="50" height="50" relative="1" as="geometry">
            <mxPoint x="340" y="190" as="sourcePoint" />
            <mxPoint x="390" y="140" as="targetPoint" />
          </mxGeometry>
        </mxCell>
        <mxCell id="YT8NjMzOfj5ycWAdWLNe-16" style="edgeStyle=orthogonalEdgeStyle;rounded=0;orthogonalLoop=1;jettySize=auto;html=1;entryX=0.5;entryY=0;entryDx=0;entryDy=0;fontFamily=Helvetica;fontSize=12;fontColor=default;" parent="1" source="YT8NjMzOfj5ycWAdWLNe-11" target="YT8NjMzOfj5ycWAdWLNe-15" edge="1">
          <mxGeometry relative="1" as="geometry" />
        </mxCell>
        <mxCell id="YT8NjMzOfj5ycWAdWLNe-19" value="是" style="edgeLabel;html=1;align=center;verticalAlign=middle;resizable=0;points=[];fontSize=12;fontFamily=Helvetica;fontColor=default;" parent="YT8NjMzOfj5ycWAdWLNe-16" vertex="1" connectable="0">
          <mxGeometry x="-0.04" y="-1" relative="1" as="geometry">
            <mxPoint as="offset" />
          </mxGeometry>
        </mxCell>
        <mxCell id="YT8NjMzOfj5ycWAdWLNe-21" style="edgeStyle=orthogonalEdgeStyle;rounded=0;orthogonalLoop=1;jettySize=auto;html=1;fontFamily=Helvetica;fontSize=12;fontColor=default;entryX=0;entryY=0.5;entryDx=0;entryDy=0;" parent="1" source="YT8NjMzOfj5ycWAdWLNe-11" target="YT8NjMzOfj5ycWAdWLNe-17" edge="1">
          <mxGeometry relative="1" as="geometry">
            <mxPoint x="220" y="1660" as="targetPoint" />
            <Array as="points">
              <mxPoint x="270" y="1315" />
              <mxPoint x="270" y="1660" />
            </Array>
          </mxGeometry>
        </mxCell>
        <mxCell id="YT8NjMzOfj5ycWAdWLNe-22" value="否" style="edgeLabel;html=1;align=center;verticalAlign=middle;resizable=0;points=[];fontSize=12;fontFamily=Helvetica;fontColor=default;" parent="YT8NjMzOfj5ycWAdWLNe-21" vertex="1" connectable="0">
          <mxGeometry x="-0.0609" y="1" relative="1" as="geometry">
            <mxPoint as="offset" />
          </mxGeometry>
        </mxCell>
        <mxCell id="YT8NjMzOfj5ycWAdWLNe-11" value="使用带有参数的构造器&lt;br&gt;newThr == 0" style="rhombus;whiteSpace=wrap;html=1;fontFamily=Helvetica;fontSize=12;fontColor=default;" parent="1" vertex="1">
          <mxGeometry x="380" y="1250" width="140" height="130" as="geometry" />
        </mxCell>
        <mxCell id="YT8NjMzOfj5ycWAdWLNe-18" style="edgeStyle=orthogonalEdgeStyle;rounded=0;orthogonalLoop=1;jettySize=auto;html=1;entryX=0.5;entryY=0;entryDx=0;entryDy=0;fontFamily=Helvetica;fontSize=12;fontColor=default;" parent="1" source="YT8NjMzOfj5ycWAdWLNe-15" target="YT8NjMzOfj5ycWAdWLNe-17" edge="1">
          <mxGeometry relative="1" as="geometry" />
        </mxCell>
        <mxCell id="YT8NjMzOfj5ycWAdWLNe-15" value="newThr = newCap * loadFactor" style="whiteSpace=wrap;html=1;fontFamily=Helvetica;fontSize=12;fontColor=default;" parent="1" vertex="1">
          <mxGeometry x="390" y="1480" width="120" height="60" as="geometry" />
        </mxCell>
        <mxCell id="YT8NjMzOfj5ycWAdWLNe-25" style="edgeStyle=orthogonalEdgeStyle;rounded=0;orthogonalLoop=1;jettySize=auto;html=1;fontFamily=Helvetica;fontSize=12;fontColor=default;" parent="1" source="YT8NjMzOfj5ycWAdWLNe-17" target="YT8NjMzOfj5ycWAdWLNe-24" edge="1">
          <mxGeometry relative="1" as="geometry" />
        </mxCell>
        <mxCell id="YT8NjMzOfj5ycWAdWLNe-17" value="设置阀值&lt;br&gt;threShold = newTrr" style="whiteSpace=wrap;html=1;fontFamily=Helvetica;fontSize=12;fontColor=default;" parent="1" vertex="1">
          <mxGeometry x="390" y="1630" width="120" height="60" as="geometry" />
        </mxCell>
        <mxCell id="YT8NjMzOfj5ycWAdWLNe-28" style="edgeStyle=orthogonalEdgeStyle;rounded=0;orthogonalLoop=1;jettySize=auto;html=1;fontFamily=Helvetica;fontSize=12;fontColor=default;" parent="1" source="YT8NjMzOfj5ycWAdWLNe-23" target="YT8NjMzOfj5ycWAdWLNe-26" edge="1">
          <mxGeometry relative="1" as="geometry" />
        </mxCell>
        <mxCell id="YT8NjMzOfj5ycWAdWLNe-23" value="迭代旧表的每个槽位的头节点" style="whiteSpace=wrap;html=1;fontFamily=Helvetica;fontSize=12;fontColor=default;" parent="1" vertex="1">
          <mxGeometry x="390" y="2000" width="120" height="60" as="geometry" />
        </mxCell>
        <mxCell id="YT8NjMzOfj5ycWAdWLNe-27" style="edgeStyle=orthogonalEdgeStyle;rounded=0;orthogonalLoop=1;jettySize=auto;html=1;entryX=0.5;entryY=0;entryDx=0;entryDy=0;fontFamily=Helvetica;fontSize=12;fontColor=default;" parent="1" source="YT8NjMzOfj5ycWAdWLNe-24" target="YT8NjMzOfj5ycWAdWLNe-23" edge="1">
          <mxGeometry relative="1" as="geometry" />
        </mxCell>
        <mxCell id="YT8NjMzOfj5ycWAdWLNe-24" value="如果旧表不为空&lt;br&gt;oldTab != null" style="rhombus;whiteSpace=wrap;html=1;fontFamily=Helvetica;fontSize=12;fontColor=default;" parent="1" vertex="1">
          <mxGeometry x="380" y="1770" width="140" height="130" as="geometry" />
        </mxCell>
        <mxCell id="YT8NjMzOfj5ycWAdWLNe-31" value="" style="edgeStyle=orthogonalEdgeStyle;rounded=0;orthogonalLoop=1;jettySize=auto;html=1;fontFamily=Helvetica;fontSize=12;fontColor=default;entryX=0.5;entryY=0;entryDx=0;entryDy=0;" parent="1" source="YT8NjMzOfj5ycWAdWLNe-26" target="YT8NjMzOfj5ycWAdWLNe-33" edge="1">
          <mxGeometry relative="1" as="geometry">
            <mxPoint x="450" y="2375" as="targetPoint" />
          </mxGeometry>
        </mxCell>
        <mxCell id="YT8NjMzOfj5ycWAdWLNe-26" value="头节点位空或头节点没有下一个节点" style="rhombus;whiteSpace=wrap;html=1;fontFamily=Helvetica;fontSize=12;fontColor=default;" parent="1" vertex="1">
          <mxGeometry x="380" y="2150" width="140" height="130" as="geometry" />
        </mxCell>
        <mxCell id="YT8NjMzOfj5ycWAdWLNe-29" value="end" style="whiteSpace=wrap;html=1;fontFamily=Helvetica;fontSize=12;fontColor=default;" parent="1" vertex="1">
          <mxGeometry x="80" y="2893" width="120" height="60" as="geometry" />
        </mxCell>
        <mxCell id="YT8NjMzOfj5ycWAdWLNe-40" style="edgeStyle=orthogonalEdgeStyle;rounded=0;orthogonalLoop=1;jettySize=auto;html=1;entryX=1;entryY=0.5;entryDx=0;entryDy=0;fontFamily=Helvetica;fontSize=12;fontColor=default;" parent="1" source="YT8NjMzOfj5ycWAdWLNe-32" target="YT8NjMzOfj5ycWAdWLNe-29" edge="1">
          <mxGeometry relative="1" as="geometry">
            <Array as="points">
              <mxPoint x="450" y="2923" />
            </Array>
          </mxGeometry>
        </mxCell>
        <mxCell id="YT8NjMzOfj5ycWAdWLNe-32" value="遍历所有节点，根据hash结果，构成新的两条链，链的头节点放到新表对应的槽位" style="whiteSpace=wrap;html=1;fontFamily=Helvetica;fontSize=12;fontColor=default;" parent="1" vertex="1">
          <mxGeometry x="360" y="2620" width="180" height="90" as="geometry" />
        </mxCell>
        <mxCell id="YT8NjMzOfj5ycWAdWLNe-35" style="edgeStyle=orthogonalEdgeStyle;rounded=0;orthogonalLoop=1;jettySize=auto;html=1;fontFamily=Helvetica;fontSize=12;fontColor=default;" parent="1" source="YT8NjMzOfj5ycWAdWLNe-33" target="YT8NjMzOfj5ycWAdWLNe-34" edge="1">
          <mxGeometry relative="1" as="geometry">
            <mxPoint x="230" y="2450" as="targetPoint" />
          </mxGeometry>
        </mxCell>
        <mxCell id="YT8NjMzOfj5ycWAdWLNe-36" value="是" style="edgeLabel;html=1;align=center;verticalAlign=middle;resizable=0;points=[];fontSize=12;fontFamily=Helvetica;fontColor=default;" parent="YT8NjMzOfj5ycWAdWLNe-35" vertex="1" connectable="0">
          <mxGeometry x="0.0222" y="-2" relative="1" as="geometry">
            <mxPoint as="offset" />
          </mxGeometry>
        </mxCell>
        <mxCell id="YT8NjMzOfj5ycWAdWLNe-37" style="edgeStyle=orthogonalEdgeStyle;rounded=0;orthogonalLoop=1;jettySize=auto;html=1;fontFamily=Helvetica;fontSize=12;fontColor=default;" parent="1" source="YT8NjMzOfj5ycWAdWLNe-33" target="YT8NjMzOfj5ycWAdWLNe-32" edge="1">
          <mxGeometry relative="1" as="geometry" />
        </mxCell>
        <mxCell id="YT8NjMzOfj5ycWAdWLNe-38" value="否" style="edgeLabel;html=1;align=center;verticalAlign=middle;resizable=0;points=[];fontSize=12;fontFamily=Helvetica;fontColor=default;" parent="YT8NjMzOfj5ycWAdWLNe-37" vertex="1" connectable="0">
          <mxGeometry x="-0.3294" y="1" relative="1" as="geometry">
            <mxPoint as="offset" />
          </mxGeometry>
        </mxCell>
        <mxCell id="YT8NjMzOfj5ycWAdWLNe-33" value="头节点是否树节点" style="rhombus;whiteSpace=wrap;html=1;fontFamily=Helvetica;fontSize=12;fontColor=default;" parent="1" vertex="1">
          <mxGeometry x="380" y="2380" width="140" height="130" as="geometry" />
        </mxCell>
        <mxCell id="YT8NjMzOfj5ycWAdWLNe-39" style="edgeStyle=orthogonalEdgeStyle;rounded=0;orthogonalLoop=1;jettySize=auto;html=1;fontFamily=Helvetica;fontSize=12;fontColor=default;" parent="1" source="YT8NjMzOfj5ycWAdWLNe-34" target="YT8NjMzOfj5ycWAdWLNe-29" edge="1">
          <mxGeometry relative="1" as="geometry" />
        </mxCell>
        <mxCell id="YT8NjMzOfj5ycWAdWLNe-34" value="按树节点的方式解决" style="whiteSpace=wrap;html=1;fontFamily=Helvetica;fontSize=12;fontColor=default;" parent="1" vertex="1">
          <mxGeometry x="80" y="2405" width="120" height="80" as="geometry" />
        </mxCell>
        <mxCell id="YT8NjMzOfj5ycWAdWLNe-41" value="1、判断节点是那个槽位时，使用高位与运算&lt;br&gt;2、构造新链的时候用尾插" style="shape=document;whiteSpace=wrap;html=1;boundedLbl=1;fontFamily=Helvetica;fontSize=12;fontColor=default;align=left;" parent="1" vertex="1">
          <mxGeometry x="640" y="2600" width="270" height="80" as="geometry" />
        </mxCell>
        <mxCell id="YT8NjMzOfj5ycWAdWLNe-42" value="" style="shape=flexArrow;endArrow=classic;html=1;rounded=0;fontFamily=Helvetica;fontSize=12;fontColor=default;entryX=0;entryY=0.25;entryDx=0;entryDy=0;exitX=1;exitY=0.5;exitDx=0;exitDy=0;" parent="1" source="YT8NjMzOfj5ycWAdWLNe-32" target="YT8NjMzOfj5ycWAdWLNe-41" edge="1">
          <mxGeometry width="50" height="50" relative="1" as="geometry">
            <mxPoint x="340" y="2640" as="sourcePoint" />
            <mxPoint x="390" y="2590" as="targetPoint" />
          </mxGeometry>
        </mxCell>
      </root>
    </mxGraphModel>
  </diagram>
</mxfile>
